<?xml version="1.0" encoding="UTF-8" ?><!DOCTYPE svg PUBLIC "-//W3C//DTD SVG 1.1//EN" "http://www.w3.org/Graphics/SVG/1.1/DTD/svg11.dtd"><svg width="17px" height="17px" viewBox="0 0 100 62" version="1.1" xmlns="http://www.w3.org/2000/svg"><path stroke-width="1" stroke="black" d="M92 8 L90 9 L89 10 L88 11 L86 12 L85 13 L83 14 L81 15 L79 16 L77 17 L76 18 L74 19 L72 20 L72 21 L71 22 L69 23 L65 24 L35 25 L36 26 L37 27 L38 28 L40 29 L41 30 L38 31 L35 32 L32 33 L28 34 L24 35 L21 36 L18 37 L17 38 L16 39 L15 40 L14 41 L12 42 L11 43 L10 44 L8 45 L7 46 L6 47 L5 48 L5 48 L7 47 L8 46 L9 45 L10 44 L12 43 L13 42 L14 41 L16 40 L17 39 L18 38 L23 37 L29 36 L34 35 L69 34 L87 33 L94 32 L96 31 L97 30 L75 29 L70 28 L71 27 L71 26 L74 25 L75 24 L76 23 L77 22 L78 21 L79 20 L80 19 L81 18 L82 17 L83 16 L84 15 L85 14 L86 13 L88 12 L89 11 L90 10 L91 9 L92 8 Z" /><path stroke-width="1" stroke="black" d="M21 10 L18 11 L16 12 L17 13 L15 14 L13 15 L11 16 L9 17 L7 18 L4 19 L2 20 L1 21 L2 21 L4 20 L6 19 L8 18 L10 17 L12 16 L14 15 L16 14 L28 13 L25 12 L24 11 L22 10 Z" /><path stroke-width="1" stroke="black" d="M19 14 L20 15 L22 16 L23 17 L25 18 L26 19 L28 20 L29 21 L30 22 L32 23 L33 24 L58 24 L49 23 L46 22 L44 21 L42 20 L40 19 L38 18 L35 17 L34 16 L31 15 L30 14 Z" /><path stroke-width="1" stroke="black" d="M90 33 L89 34 L88 35 L87 36 L85 37 L84 38 L83 39 L82 40 L81 41 L80 42 L79 43 L77 44 L76 45 L75 46 L74 47 L73 48 L73 49 L73 49 L74 48 L75 47 L76 46 L77 45 L79 44 L80 43 L81 42 L82 41 L83 40 L84 39 L85 38 L86 37 L88 36 L89 35 L91 34 L92 33 Z" /><path stroke-width="1" stroke="black" d="M44 35 L45 36 L43 37 L42 38 L41 39 L39 40 L38 41 L36 42 L34 43 L33 44 L31 45 L30 46 L29 47 L28 48 L26 49 L25 50 L24 51 L24 52 L24 53 L30 53 L33 52 L34 51 L36 50 L37 49 L38 48 L40 47 L41 46 L43 45 L45 44 L46 43 L48 42 L49 41 L51 40 L52 39 L54 38 L54 37 L54 36 L67 35 Z" /><path stroke-width="1" stroke="black" d="M56 36 L58 37 L58 38 L59 38 L62 37 L65 36 Z" /></svg>
